<svg width="260" height="118" viewBox="0 0 260 118" fill="none" xmlns="http://www.w3.org/2000/svg">
<g id="maintenance mode">
<rect id="Rectangle" x="226.922" y="47.5817" width="7.64706" height="27.1895" fill="#F2F2F2"/>
<path id="Path" opacity="0.58" d="M240.092 69.3494L220.987 46.732L182.637 47.0809L159.373 69.629L159.843 69.9297H159.675V116.83H240.041V69.9297L240.092 69.3494Z" fill="#E6E3D6"/>
<path id="Path_2" d="M221.055 46.732L197.184 74.5964V116.83H240.092V69.2957L221.055 46.732Z" fill="#E6E3D6"/>
<rect id="Rectangle_2" x="214.177" y="93.4641" width="8.92157" height="7.64706" fill="#3F3D56"/>
<rect id="Rectangle_3" x="214.177" y="80.2941" width="8.92157" height="7.64706" fill="#3F3D56"/>
<rect id="Rectangle_4" x="214.177" y="93.4641" width="8.92157" height="7.64706" fill="white"/>
<rect id="Rectangle_5" x="214.177" y="80.2941" width="8.92157" height="7.64706" fill="white"/>
<rect id="Rectangle_6" x="175.517" y="91.7647" width="8.92157" height="7.64706" fill="white"/>
<rect id="Rectangle_7" x="175.517" y="77.7451" width="8.92157" height="7.64706" fill="white"/>
<rect id="Rectangle_8" opacity="0.58" x="164.896" y="47.5817" width="7.64706" height="27.1895" fill="#E6E3D6"/>
<path id="Path_3" opacity="0.58" d="M178.066 69.3494L158.961 46.732L120.611 47.0809L97.3469 69.629L97.817 69.9297H97.6491V116.83H178.015V69.9297L178.066 69.3494Z" fill="#E6E3D6"/>
<path id="Path_4" d="M158.604 46.732L134.733 74.5964V116.83H177.641V69.2957L158.604 46.732Z" fill="#E6E3D6"/>
<rect id="Rectangle_9" x="152.151" y="93.4641" width="8.92157" height="7.64706" fill="#3F3D56"/>
<rect id="Rectangle_10" x="152.151" y="80.2941" width="8.92157" height="7.64706" fill="#3F3D56"/>
<rect id="Rectangle_11" x="152.151" y="93.4641" width="8.92157" height="7.64706" fill="white"/>
<rect id="Rectangle_12" x="152.151" y="80.2941" width="8.92157" height="7.64706" fill="white"/>
<rect id="Rectangle_13" x="113.491" y="91.7647" width="8.92157" height="7.64706" fill="white"/>
<rect id="Rectangle_14" x="113.491" y="77.7451" width="8.92157" height="7.64706" fill="white"/>
<rect id="Rectangle_15" opacity="0.574787" x="99.0463" y="24.2157" width="10.6209" height="36.1111" fill="#E6E3D6"/>
<path id="Path_5" opacity="0.574787" d="M116.465 53.2344L90.9238 22.9412L39.656 23.4083L8.55609 53.6093L9.18434 54.012H8.95998V116.83H116.396V54.012L116.465 53.2344Z" fill="#E6E3D6"/>
<path id="Path_6" d="M90.5944 22.9412L58.6868 60.2627V116.83H116.04V53.1629L90.5944 22.9412Z" fill="#E6E3D6"/>
<rect id="Rectangle_16" x="82.0529" y="85.3922" width="11.4706" height="10.1961" fill="#3F3D56"/>
<rect id="Rectangle_17" x="82.0529" y="67.549" width="11.4706" height="10.1961" fill="#3F3D56"/>
<rect id="Rectangle_18" x="82.0529" y="85.3922" width="11.4706" height="10.1961" fill="white"/>
<rect id="Rectangle_19" x="82.0529" y="67.549" width="11.4706" height="10.1961" fill="white"/>
<rect id="Rectangle_20" x="30.2228" y="82.8431" width="11.4706" height="10.1961" fill="white"/>
<rect id="Rectangle_21" x="30.2228" y="65" width="11.4706" height="10.1961" fill="white"/>
<rect id="Rectangle_22" x="0.0593567" y="116.83" width="250.654" height="0.424837" fill="#3F3D56"/>
<ellipse id="Oval" cx="39.5692" cy="91.5523" rx="7.64706" ry="15.5065" fill="#003349"/>
<path id="Path_7" d="M39.9031 116.83C37.2533 98.8315 39.8765 80.8979 39.9033 80.719L40.4187 80.8178C40.392 80.9958 37.7839 98.8352 40.4188 116.733L39.9031 116.83Z" fill="#DDAD49"/>
<path id="Rectangle_23" d="M39.3348 91.9787L46.1813 88.3194L46.4635 88.8466L39.617 92.5059L39.3348 91.9787Z" fill="#DDAD49"/>
<path id="Rectangle_24" d="M32.1088 90.6796L32.3912 90.1524L39.2369 93.8138L38.9545 94.3409L32.1088 90.6796Z" fill="#DDAD49"/>
<ellipse id="Oval_2" cx="21.3012" cy="67.9739" rx="14.8693" ry="30.1634" fill="#1A8C9B"/>
<path id="Path_8" d="M22.883 117.255C17.4397 81.6808 22.8281 46.2362 22.8832 45.8824L23.4252 45.9824C23.3703 46.3354 17.9977 81.6846 23.4254 117.157L22.883 117.255Z" fill="#3F3D56"/>
<path id="Rectangle_25" d="M21.1052 68.7488L34.4965 61.5915L34.7787 62.1187L21.3874 69.276L21.1052 68.7488Z" fill="#3F3D56"/>
<path id="Rectangle_26" d="M6.97234 65.704L7.2547 65.1769L20.644 72.3379L20.3617 72.865L6.97234 65.704Z" fill="#3F3D56"/>
<ellipse id="Oval_3" cx="55.9253" cy="49.4935" rx="20.1797" ry="41.4216" fill="#DDAD49"/>
<path id="Path_9" d="M59.0004 117.255C51.6409 68.552 58.9261 20.0269 59.0006 19.5425L59.5363 19.6426C59.462 20.1261 52.1924 68.5558 59.5365 117.157L59.0004 117.255Z" fill="#3F3D56"/>
<path id="Rectangle_27" d="M56.1496 51.0116L74.4745 41.2174L74.7567 41.7446L56.4318 51.5388L56.1496 51.0116Z" fill="#3F3D56"/>
<path id="Rectangle_28" d="M36.81 46.6509L37.0923 46.1238L55.4146 55.9228L55.1323 56.4499L36.81 46.6509Z" fill="#3F3D56"/>
<ellipse id="Oval_4" cx="226.497" cy="91.5523" rx="7.64706" ry="15.5065" fill="#003349"/>
<path id="Path_10" d="M226.163 116.83C228.813 98.8315 226.19 80.8979 226.163 80.719L225.648 80.8178C225.674 80.9958 228.282 98.8352 225.648 116.733L226.163 116.83Z" fill="#DDAD49"/>
<path id="Rectangle_29" d="M219.684 88.8466L219.966 88.3194L226.813 91.9787L226.531 92.5059L219.684 88.8466Z" fill="#DDAD49"/>
<path id="Rectangle_30" d="M226.911 93.8138L233.756 90.1524L234.039 90.6796L227.193 94.3409L226.911 93.8138Z" fill="#DDAD49"/>
<ellipse id="Oval_5" cx="244.765" cy="67.9739" rx="14.8693" ry="30.1634" fill="#1A8C9B"/>
<path id="Path_11" d="M243.183 117.255C248.627 81.6808 243.238 46.2362 243.183 45.8824L242.641 45.9824C242.696 46.3354 248.069 81.6846 242.641 117.157L243.183 117.255Z" fill="#3F3D56"/>
<path id="Rectangle_31" d="M231.369 62.1187L231.651 61.5915L245.042 68.7488L244.76 69.276L231.369 62.1187Z" fill="#3F3D56"/>
<path id="Rectangle_32" d="M245.503 72.3378L258.893 65.1769L259.175 65.704L245.786 72.865L245.503 72.3378Z" fill="#3F3D56"/>
<ellipse id="Oval_6" cx="210.141" cy="49.4935" rx="20.1797" ry="41.4216" fill="#DDAD49"/>
<path id="Path_12" d="M207.491 117.255C214.85 68.552 207.565 20.0269 207.491 19.5425L206.955 19.6426C207.029 20.1261 214.299 68.5558 206.955 117.157L207.491 117.255Z" fill="#3F3D56"/>
<path id="Rectangle_33" d="M191.391 41.7446L191.673 41.2174L209.998 51.0116L209.716 51.5388L191.391 41.7446Z" fill="#3F3D56"/>
<path id="Rectangle_34" d="M210.733 55.9228L229.055 46.1238L229.338 46.6509L211.015 56.4499L210.733 55.9228Z" fill="#3F3D56"/>
<path id="Path_13" d="M153.165 26.4915L155.55 24.6661C153.697 24.4705 152.936 25.4375 152.624 26.2028C151.177 25.6276 149.602 26.3814 149.602 26.3814L154.373 28.0392C154.132 27.4239 153.713 26.887 153.165 26.4915Z" fill="#003349"/>
<path id="Path_14" d="M94.9624 9.49804L97.3469 7.67263C95.4945 7.47702 94.7334 8.44398 94.4219 9.20935C92.9747 8.63417 91.3992 9.38797 91.3992 9.38797L96.1702 11.0458C95.9295 10.4304 95.5106 9.89355 94.9624 9.49804Z" fill="#003349"/>
<path id="Path_15" d="M190.551 1.85097L192.935 0.0255638C191.083 -0.170048 190.322 0.79692 190.01 1.56228C188.563 0.987102 186.987 1.7409 186.987 1.7409L191.758 3.39869C191.518 2.78337 191.099 2.24648 190.551 1.85097Z" fill="#003349"/>
<path id="Path_16" d="M194.847 113.885C194.213 113.885 193.591 114.031 193.043 114.308C191.905 113.408 190.267 113.179 188.865 113.724C187.463 114.27 186.561 115.487 186.563 116.83H198.458C198.324 115.171 196.747 113.885 194.847 113.885Z" fill="#003349"/>
<path id="Path_17" d="M73.7684 113.885C73.1348 113.885 72.5125 114.031 71.9641 114.308C70.8262 113.408 69.1886 113.179 67.7868 113.724C66.385 114.27 65.4823 115.487 65.4842 116.83H77.3796C77.2451 115.171 75.6686 113.885 73.7684 113.885Z" fill="#003349"/>
<path id="Path_18" d="M135.794 113.885C135.161 113.885 134.539 114.031 133.99 114.308C132.852 113.408 131.215 113.179 129.813 113.724C128.411 114.27 127.508 115.487 127.51 116.83H139.406C139.271 115.171 137.695 113.885 135.794 113.885Z" fill="#003349"/>
<path id="Path_19" d="M123.262 105.359H88.8502V106.452H94.217V116.83H95.327V106.452H116.23V116.83H117.34V106.452H123.262V105.359Z" fill="#003349"/>
<rect id="Rectangle_35" x="88.8502" y="101.961" width="34.4118" height="0.849673" fill="#003349"/>
<rect id="Rectangle_36" x="88.8502" y="98.9869" width="34.4118" height="0.849673" fill="#003349"/>
<rect id="Rectangle_37" x="88.8502" y="96.4379" width="34.4118" height="0.849673" fill="#003349"/>
<path id="Path_20" d="M176.791 105.359H142.38V106.452H147.746V116.83H148.856V106.452H169.759V116.83H170.87V106.452H176.791V105.359Z" fill="#003349"/>
<rect id="Rectangle_38" x="142.38" y="101.961" width="34.4118" height="0.849673" fill="#003349"/>
<rect id="Rectangle_39" x="142.38" y="98.9869" width="34.4118" height="0.849673" fill="#003349"/>
<rect id="Rectangle_40" x="142.38" y="96.4379" width="34.4118" height="0.849673" fill="#003349"/>
</g>
</svg>
