<svg width="1359" height="311" viewBox="0 0 1359 311" fill="none" xmlns="http://www.w3.org/2000/svg">
<path d="M671.487 201.039C671.015 221.887 656.219 246.052 615.609 246.052C591.054 246.052 576.258 235.944 576.258 219.202C576.258 200.881 590.424 191.404 620.803 189.509L671.487 187.93V201.039ZM630.72 101.694H629.933C607.109 101.694 588.063 108.328 576.1 120.647C569.332 127.596 564.924 135.809 563.036 145.286C562.878 146.391 563.665 147.339 564.767 147.339H586.646C591.211 131.387 606.322 122.542 629.618 122.542H630.405C656.062 122.542 671.487 131.703 671.487 146.865V167.397C671.487 167.871 671.015 168.345 670.543 168.345L617.498 170.714C574.526 172.925 553.591 188.877 553.591 219.36C553.591 254.738 585.072 267.374 614.664 267.374C637.331 267.374 654.016 261.214 668.497 247.157L671.802 243.525V264.215H693.839V150.024C693.839 119.226 670.858 101.694 630.72 101.694Z" fill="#003349"/>
<path d="M799.457 101.694C754.282 101.694 722.644 138.968 722.644 184.929C722.644 230.416 753.023 267.532 799.457 267.532C824.642 267.532 845.104 256.95 859.428 237.839C862.576 233.574 865.41 228.836 867.771 223.782C868.243 222.677 867.456 221.255 866.197 221.255H843.373C839.28 227.731 834.716 232.153 832.827 233.89C823.225 242.261 812.679 246.526 799.457 246.526C770.337 246.526 745.468 219.202 745.468 185.087C745.468 150.656 770.337 123.016 799.457 123.016C813.466 123.016 824.642 127.912 834.716 137.547C836.132 138.968 839.595 142.601 842.901 147.497H865.724C866.984 147.497 867.928 146.075 867.298 144.97C863.363 136.599 858.641 130.439 855.178 126.649C840.855 110.381 821.966 101.694 799.457 101.694Z" fill="#003349"/>
<path d="M1009.12 201.039C1008.65 221.887 993.851 246.052 953.241 246.052C928.686 246.052 913.89 235.944 913.89 219.202C913.89 200.881 928.056 191.404 958.435 189.509L1009.12 187.93V201.039ZM968.352 101.694H967.564C944.741 101.694 925.695 108.328 913.732 120.647C906.964 127.439 902.714 135.809 900.825 145.128C900.668 146.233 901.455 147.339 902.714 147.339H924.436C929 131.387 944.111 122.542 967.407 122.542H968.194C993.851 122.542 1009.28 131.703 1009.28 146.865V167.397C1009.28 167.871 1008.8 168.345 1008.33 168.345L955.287 170.714C912.316 172.925 891.381 188.877 891.381 219.36C891.381 254.738 922.862 267.374 952.454 267.374C975.12 267.374 991.805 261.214 1006.29 247.157L1009.59 243.525V264.215H1031.63V150.024C1031.47 119.226 1008.49 101.694 968.352 101.694Z" fill="#003349"/>
<path d="M1125.44 101.536C1083.41 101.536 1064.21 125.385 1064.21 147.655C1064.21 157.763 1066.57 165.344 1071.45 171.346C1082.47 184.613 1098.05 187.772 1126.7 189.667C1154.88 191.562 1169.04 200.881 1169.83 218.096C1170.14 224.888 1167.94 230.889 1163.53 235.628C1156.92 242.577 1145.27 246.21 1129.85 246.21H1128.43C1110.96 245.894 1096.32 239.576 1088.14 228.836C1086.25 226.309 1084.99 223.94 1083.89 221.097H1062.48C1061.22 221.097 1060.43 222.203 1060.75 223.466C1068.3 250.474 1093.49 266.9 1128.75 267.374H1130.32C1152.2 267.374 1170.14 261.372 1180.85 250.316C1188.88 242.103 1192.81 231.205 1192.65 217.938C1192.02 188.404 1171.88 172.294 1131.11 168.977C1104.82 166.766 1087.19 162.185 1087.19 146.707C1087.19 132.809 1103.72 122.385 1125.44 122.385C1142.76 122.385 1155.98 128.86 1162.43 140.548C1163.06 141.653 1164.16 144.022 1165.11 147.339H1186.51C1187.62 147.339 1188.4 146.391 1188.25 145.286C1187.77 142.917 1187.3 140.706 1186.51 138.652C1179.12 115.119 1156.76 101.536 1125.44 101.536Z" fill="#003349"/>
<path d="M1336.05 201.039C1335.58 221.887 1320.78 246.052 1280.17 246.052C1255.61 246.052 1240.82 235.944 1240.82 219.202C1240.82 200.881 1254.99 191.404 1285.36 189.509L1336.05 187.93V201.039ZM1295.28 101.694H1294.49C1271.67 101.694 1252.62 108.328 1240.66 120.647C1233.89 127.596 1229.49 135.809 1227.6 145.286C1227.44 146.391 1228.23 147.339 1229.33 147.339H1251.21C1255.77 131.387 1270.88 122.542 1294.18 122.542H1294.97C1320.62 122.542 1336.05 131.703 1336.05 146.865V167.397C1336.05 167.871 1335.58 168.345 1335.1 168.345L1282.06 170.714C1239.09 172.925 1218.15 188.877 1218.15 219.36C1218.15 254.738 1249.63 267.374 1279.23 267.374C1301.89 267.374 1318.58 261.214 1333.06 247.157L1336.36 243.525V264.215H1358.4V150.024C1358.4 119.226 1335.26 101.694 1295.28 101.694Z" fill="#003349"/>
<path d="M522.268 105.32L473.472 238.305L423.89 105.32H402.011C400.752 105.32 399.965 106.583 400.279 107.689L459.778 264.05H486.852L545.878 107.689C546.351 106.583 545.406 105.32 544.147 105.32H522.268V105.32Z" fill="#003349"/>
<path d="M115.85 310.491H11.6479C5.19434 310.491 0 305.279 0 298.804V116.699C0 112.908 1.88885 109.275 5.03694 107.064L156.932 2.03393C160.867 -0.651055 166.062 -0.651055 169.997 1.87599L321.892 106.432C325.197 108.644 327.086 112.276 327.086 116.225V298.804C327.086 305.279 321.892 310.491 315.438 310.491H211.394V287.116H297.966C301.272 287.116 303.79 284.431 303.79 281.272V125.701C303.79 123.806 302.846 121.911 301.115 120.805L167.006 28.0941C164.96 26.8306 162.441 26.8306 160.395 28.0941L25.9717 121.121C24.3977 122.227 23.4532 123.964 23.4532 126.017V281.43C23.4532 284.747 26.1291 287.274 29.2772 287.274H115.85V310.491Z" fill="#003349"/>
<path d="M69.4154 263.741H46.1195V141.337C46.1195 137.389 48.0084 133.756 51.3139 131.703L157.09 59.998C161.025 57.3131 166.062 57.3131 169.997 59.8401L275.773 131.229C279.078 133.44 281.124 137.073 281.124 141.021V263.741H257.828V150.498C257.828 148.445 256.884 146.707 255.153 145.602L167.163 85.7423C165.117 84.4788 162.599 84.4788 160.71 85.7423L72.2486 145.76C70.6746 146.865 69.7302 148.603 69.7302 150.656V263.741H69.4154Z" fill="#003349"/>
<path d="M115.692 263.741H92.3962V166.45C92.3962 162.501 94.4424 158.869 97.5905 156.658L157.089 117.488C160.867 114.961 165.747 114.961 169.524 117.33L229.023 156.026C232.486 158.079 234.69 161.87 234.69 165.976V263.741H211.394V175.926C211.394 173.873 210.292 171.978 208.561 170.872L163.858 141.021L118.525 170.872C116.951 171.978 115.849 173.873 115.849 175.768V263.741H115.692Z" fill="#003349"/>
</svg>
