<?xml version="1.0" standalone="no"?>
<!DOCTYPE svg PUBLIC "-//W3C//DTD SVG 20010904//EN"
 "http://www.w3.org/TR/2001/REC-SVG-20010904/DTD/svg10.dtd">
<svg version="1.0" xmlns="http://www.w3.org/2000/svg"
 width="1024.000000pt" height="1024.000000pt" viewBox="0 0 1024.000000 1024.000000"
 preserveAspectRatio="xMidYMid meet">
<metadata>
Created by potrace 1.14, written by Peter Selinger 2001-2017
</metadata>
<g transform="translate(0.000000,1024.000000) scale(0.100000,-0.100000)"
fill="#000000" stroke="none">
<path d="M5060 9354 c-8 -3 -33 -13 -55 -22 -55 -24 -4210 -2871 -4265 -2924
-26 -24 -57 -65 -70 -93 l-25 -50 0 -2565 0 -2565 34 -63 c37 -69 79 -109 151
-144 l45 -23 1473 -3 1472 -2 0 320 0 320 -1214 0 -1213 0 -33 23 c-18 12 -43
35 -54 50 l-21 28 0 2174 0 2174 21 28 c15 21 2825 1959 3672 2533 92 62 109
70 150 70 26 0 60 -7 75 -15 16 -8 864 -587 1884 -1287 1751 -1200 1857 -1274
1874 -1314 19 -41 19 -113 17 -2202 l-3 -2161 -21 -28 c-11 -15 -36 -38 -54
-50 l-33 -23 -1213 0 -1214 0 0 -320 0 -320 1473 2 1472 3 50 25 c64 31 124
92 156 155 l24 50 3 2550 c2 2824 8 2599 -62 2695 -28 38 -387 288 -2142 1487
-1160 792 -2129 1450 -2153 1462 -43 22 -167 38 -201 25z"/>
<path d="M5050 7771 c-14 -5 -41 -16 -60 -26 -79 -40 -2958 -1983 -2997 -2023
-24 -25 -50 -65 -62 -98 -21 -55 -21 -62 -21 -1755 l0 -1699 318 2 317 3 5
1570 c5 1485 6 1571 23 1596 21 31 2461 1678 2515 1697 26 10 49 11 77 5 28
-6 399 -251 1240 -818 660 -444 1215 -819 1233 -832 18 -13 40 -36 50 -51 16
-24 17 -130 22 -1597 l5 -1570 318 -3 317 -2 0 1704 c0 1698 0 1705 -21 1760
-12 33 -37 73 -62 98 -59 59 -2979 2011 -3040 2032 -50 17 -134 20 -177 7z"/>
<path d="M5050 6201 c-14 -5 -43 -17 -65 -28 -77 -40 -1670 -1085 -1708 -1122
-21 -20 -51 -58 -65 -86 l-27 -50 -3 -1373 -2 -1372 317 2 318 3 5 1227 c5
1225 5 1227 26 1255 26 35 1273 854 1294 849 31 -6 1246 -817 1270 -848 l25
-31 5 -1226 5 -1226 318 -3 317 -2 0 1367 0 1368 -29 60 c-16 33 -46 76 -67
97 -60 56 -1710 1119 -1762 1134 -49 15 -131 17 -172 5z"/>
</g>
</svg>
